<svg xmlns="http://www.w3.org/2000/svg" viewBox="0 0 1736 113.87">
  <g id="Camada_2" data-name="Camada 2">
    <g id="Camada_1-2" data-name="Camada 1">
      <path d="M806.82,71.19c441,52.67,929.18,34.57,929.18,34.57V0H0V108.76l.46-1.57,1.08-.43S376.83,19.82,806.82,71.19Z" style="fill: #fff;fill-rule: evenodd"/>
      <path d="M806,71.19C375.62,19.82,0,106.76,0,106.76v2.06S434.36,49.89,866,89.28c446.67,40.76,870,18.54,870,18.54v-2.06S1247.37,123.86,806,71.19Z" style="fill: #fab757;fill-rule: evenodd"/>
      <path d="M1715.44,108.76H1173.75C1435.59,118.73,1650.06,111.51,1715.44,108.76Z" style="fill: #fab757;fill-rule: evenodd"/>
      <path d="M807.32,65.38c-365.08-44-678.07,13.54-775.76,34.83,99-19.22,417.91-71.58,774.44-29,328,39.14,682.08,39.2,842.35,36.64C1490.16,108.89,1142.18,105.69,807.32,65.38Z" style="fill: #20bec6;fill-rule: evenodd"/>
    </g>
  </g>
</svg>
