<svg xmlns="http://www.w3.org/2000/svg" viewBox="0 0 1736 50.63">
  <g id="Camada_2" data-name="Camada 2">
    <g id="Camada_1-2" data-name="Camada 1">
      <path d="M845,11C419.83-22.85,0,32.16,0,32.16V45.27s408.54-29.65,829.32-5.65C1312.29,67.17,1736,16.71,1736,16.71V3.59S1315,48.46,845,11Z" style="fill: #fab757;fill-rule: evenodd"/>
      <path d="M829.32,39.62C408.54,15.62,0,45.27,0,45.27v5.36H1736V16.71S1312.29,67.17,829.32,39.62Z" style="fill: #fff;fill-rule: evenodd"/>
      <path d="M848,30.64C434.45-1.25,0,42.06,0,42.06v3.21s408.54-29.65,829.32-5.65C1312.29,67.17,1736,16.71,1736,16.71V13.5S1329.23,67.74,848,30.64Z" style="fill: #20bec6;fill-rule: evenodd"/>
    </g>
  </g>
</svg>
